<svg xmlns="http://www.w3.org/2000/svg" width="820" height="520" viewBox="0 0 820 520">
<style>
text { font-family: Arial, sans-serif; fill: #222; }
.small { font-size: 12px; }
.label { font-size: 13px; font-weight: bold; }
.title { font-size: 18px; font-weight: bold; }
.axis { stroke: #444; stroke-width: 1.2; }
.grid { stroke: #ddd; stroke-width: 1; }
</style>
<text x="410.0" y="30" text-anchor="middle" class="title">MIA Sensitivity Across Min-k Thresholds</text>
<line x1="90" y1="450.0" x2="780" y2="450.0" class="grid" />
<text x="80" y="454.0" text-anchor="end" class="small">0.347</text>
<line x1="90" y1="352.5" x2="780" y2="352.5" class="grid" />
<text x="80" y="356.5" text-anchor="end" class="small">0.424</text>
<line x1="90" y1="254.99999999999991" x2="780" y2="254.99999999999991" class="grid" />
<text x="80" y="258.9999999999999" text-anchor="end" class="small">0.502</text>
<line x1="90" y1="157.49999999999994" x2="780" y2="157.49999999999994" class="grid" />
<text x="80" y="161.49999999999994" text-anchor="end" class="small">0.579</text>
<line x1="90" y1="60.0" x2="780" y2="60.0" class="grid" />
<text x="80" y="64.0" text-anchor="end" class="small">0.656</text>
<line x1="90.0" y1="60" x2="90.0" y2="450" class="grid" />
<text x="90.0" y="470" text-anchor="middle" class="small">10</text>
<line x1="228.0" y1="60" x2="228.0" y2="450" class="grid" />
<text x="228.0" y="470" text-anchor="middle" class="small">20</text>
<line x1="366.0" y1="60" x2="366.0" y2="450" class="grid" />
<text x="366.0" y="470" text-anchor="middle" class="small">30</text>
<line x1="504.0" y1="60" x2="504.0" y2="450" class="grid" />
<text x="504.0" y="470" text-anchor="middle" class="small">40</text>
<line x1="642.0" y1="60" x2="642.0" y2="450" class="grid" />
<text x="642.0" y="470" text-anchor="middle" class="small">50</text>
<line x1="780.0" y1="60" x2="780.0" y2="450" class="grid" />
<text x="780.0" y="470" text-anchor="middle" class="small">60</text>
<line x1="90" y1="450" x2="780" y2="450" class="axis" />
<line x1="90" y1="60" x2="90" y2="450" class="axis" />
<text x="410.0" y="500" text-anchor="middle" class="label">Min-k threshold (%)</text>
<text x="22" y="260.0" text-anchor="middle" transform="rotate(-90 22 260.0)" class="label">MIA score</text>
<polyline fill="none" stroke="#2e86ab" stroke-width="3" points="90.0,320.656333509502 228.0,366.6625788106386 366.0,341.97931011381485 504.0,314.8574709135707 642.0,327.33337179267687 780.0,326.54954555943453" />
<circle cx="90.0" cy="320.656333509502" r="4" fill="#2e86ab" />
<circle cx="228.0" cy="366.6625788106386" r="4" fill="#2e86ab" />
<circle cx="366.0" cy="341.97931011381485" r="4" fill="#2e86ab" />
<circle cx="504.0" cy="314.8574709135707" r="4" fill="#2e86ab" />
<circle cx="642.0" cy="327.33337179267687" r="4" fill="#2e86ab" />
<circle cx="780.0" cy="326.54954555943453" r="4" fill="#2e86ab" />
<polyline fill="none" stroke="#2a9d8f" stroke-width="3" points="90.0,377.59985782449144 228.0,426.9954258193701 366.0,413.78650225917625 504.0,395.75849889460403 642.0,406.9352803686142 780.0,398.8502579257263" />
<circle cx="90.0" cy="377.59985782449144" r="4" fill="#2a9d8f" />
<circle cx="228.0" cy="426.9954258193701" r="4" fill="#2a9d8f" />
<circle cx="366.0" cy="413.78650225917625" r="4" fill="#2a9d8f" />
<circle cx="504.0" cy="395.75849889460403" r="4" fill="#2a9d8f" />
<circle cx="642.0" cy="406.9352803686142" r="4" fill="#2a9d8f" />
<circle cx="780.0" cy="398.8502579257263" r="4" fill="#2a9d8f" />
<polyline fill="none" stroke="#d1495b" stroke-width="3" points="90.0,146.059040054786 228.0,149.01290373006015 366.0,120.75161343149159 504.0,99.3850909253319 642.0,109.80707676733101 780.0,107.2668991596014" />
<circle cx="90.0" cy="146.059040054786" r="4" fill="#d1495b" />
<circle cx="228.0" cy="149.01290373006015" r="4" fill="#d1495b" />
<circle cx="366.0" cy="120.75161343149159" r="4" fill="#d1495b" />
<circle cx="504.0" cy="99.3850909253319" r="4" fill="#d1495b" />
<circle cx="642.0" cy="109.80707676733101" r="4" fill="#d1495b" />
<circle cx="780.0" cy="107.2668991596014" r="4" fill="#d1495b" />
<line x1="690" y1="76" x2="708" y2="76" stroke="#d1495b" stroke-width="3" />
<circle cx="699" cy="76" r="4" fill="#d1495b" />
<text x="716" y="80" class="small">PGA</text>
<line x1="690" y1="100" x2="708" y2="100" stroke="#2e86ab" stroke-width="3" />
<circle cx="699" cy="100" r="4" fill="#2e86ab" />
<text x="716" y="104" class="small">GAFT</text>
<line x1="690" y1="124" x2="708" y2="124" stroke="#2a9d8f" stroke-width="3" />
<circle cx="699" cy="124" r="4" fill="#2a9d8f" />
<text x="716" y="128" class="small">IDK</text>
</svg>
