<svg xmlns="http://www.w3.org/2000/svg" width="860" height="540" viewBox="0 0 860 540">
<style>
text { font-family: Arial, sans-serif; fill: #222; }
.small { font-size: 12px; }
.label { font-size: 13px; font-weight: bold; }
.title { font-size: 18px; font-weight: bold; }
.axis { stroke: #444; stroke-width: 1.2; }
.grid { stroke: #ddd; stroke-width: 1; }
</style>
<text x="430.0" y="30" text-anchor="middle" class="title">Accuracy by Evaluation Split</text>
<line x1="90" y1="460.0" x2="830" y2="460.0" class="grid" />
<text x="80" y="464.0" text-anchor="end" class="small">0.0</text>
<line x1="90" y1="380.0" x2="830" y2="380.0" class="grid" />
<text x="80" y="384.0" text-anchor="end" class="small">0.2</text>
<line x1="90" y1="300.0" x2="830" y2="300.0" class="grid" />
<text x="80" y="304.0" text-anchor="end" class="small">0.4</text>
<line x1="90" y1="220.0" x2="830" y2="220.0" class="grid" />
<text x="80" y="224.0" text-anchor="end" class="small">0.6</text>
<line x1="90" y1="140.0" x2="830" y2="140.0" class="grid" />
<text x="80" y="144.0" text-anchor="end" class="small">0.8</text>
<line x1="90" y1="60.00000000000006" x2="830" y2="60.00000000000006" class="grid" />
<text x="80" y="64.00000000000006" text-anchor="end" class="small">1.0</text>
<line x1="90" y1="460" x2="830" y2="460" class="axis" />
<line x1="90" y1="60" x2="90" y2="460" class="axis" />
<text x="22" y="270.0" text-anchor="middle" transform="rotate(-90 22 270.0)" class="label">Accuracy</text>
<text x="213.33333333333331" y="485" text-anchor="middle" class="label">PGA</text>
<rect x="131.11111111111111" y="218.32053251408092" width="41.11111111111111" height="241.67946748591908" fill="#d1495b" />
<line x1="151.66666666666666" y1="218.32053251408092" x2="151.66666666666666" y2="218.32053251408092" stroke="#333" stroke-width="1.5" />
<line x1="146.66666666666666" y1="218.32053251408092" x2="156.66666666666666" y2="218.32053251408092" stroke="#333" stroke-width="1.5" />
<line x1="146.66666666666666" y1="218.32053251408092" x2="156.66666666666666" y2="218.32053251408092" stroke="#333" stroke-width="1.5" />
<rect x="180.22222222222223" y="227.5371223758321" width="41.11111111111111" height="232.4628776241679" fill="#edae49" />
<line x1="200.77777777777777" y1="227.5371223758321" x2="200.77777777777777" y2="227.5371223758321" stroke="#333" stroke-width="1.5" />
<line x1="195.77777777777777" y1="227.5371223758321" x2="205.77777777777777" y2="227.5371223758321" stroke="#333" stroke-width="1.5" />
<line x1="195.77777777777777" y1="227.5371223758321" x2="205.77777777777777" y2="227.5371223758321" stroke="#333" stroke-width="1.5" />
<rect x="229.33333333333331" y="87.24014336917566" width="41.11111111111111" height="372.75985663082434" fill="#00798c" />
<line x1="249.88888888888886" y1="87.24014336917566" x2="249.88888888888886" y2="87.24014336917566" stroke="#333" stroke-width="1.5" />
<line x1="244.88888888888886" y1="87.24014336917566" x2="254.88888888888886" y2="87.24014336917566" stroke="#333" stroke-width="1.5" />
<line x1="244.88888888888886" y1="87.24014336917566" x2="254.88888888888886" y2="87.24014336917566" stroke="#333" stroke-width="1.5" />
<rect x="278.44444444444446" y="102.88996547061072" width="41.11111111111111" height="357.1100345293893" fill="#66a182" />
<line x1="299.0" y1="102.88996547061072" x2="299.0" y2="102.88996547061072" stroke="#333" stroke-width="1.5" />
<line x1="294.0" y1="102.88996547061072" x2="304.0" y2="102.88996547061072" stroke="#333" stroke-width="1.5" />
<line x1="294.0" y1="102.88996547061072" x2="304.0" y2="102.88996547061072" stroke="#333" stroke-width="1.5" />
<text x="459.99999999999994" y="485" text-anchor="middle" class="label">GAFT</text>
<rect x="377.7777777777777" y="216.2724014336918" width="41.11111111111111" height="243.7275985663082" fill="#d1495b" />
<line x1="398.33333333333326" y1="216.2724014336918" x2="398.33333333333326" y2="216.2724014336918" stroke="#333" stroke-width="1.5" />
<line x1="393.33333333333326" y1="216.2724014336918" x2="403.33333333333326" y2="216.2724014336918" stroke="#333" stroke-width="1.5" />
<line x1="393.33333333333326" y1="216.2724014336918" x2="403.33333333333326" y2="216.2724014336918" stroke="#333" stroke-width="1.5" />
<rect x="426.8888888888888" y="229.5852534562212" width="41.11111111111111" height="230.4147465437788" fill="#edae49" />
<line x1="447.44444444444434" y1="229.5852534562212" x2="447.44444444444434" y2="229.5852534562212" stroke="#333" stroke-width="1.5" />
<line x1="442.44444444444434" y1="229.5852534562212" x2="452.44444444444434" y2="229.5852534562212" stroke="#333" stroke-width="1.5" />
<line x1="442.44444444444434" y1="229.5852534562212" x2="452.44444444444434" y2="229.5852534562212" stroke="#333" stroke-width="1.5" />
<rect x="475.99999999999994" y="79.0476190476191" width="41.11111111111111" height="380.9523809523809" fill="#00798c" />
<line x1="496.5555555555555" y1="79.0476190476191" x2="496.5555555555555" y2="79.0476190476191" stroke="#333" stroke-width="1.5" />
<line x1="491.5555555555555" y1="79.0476190476191" x2="501.5555555555555" y2="79.0476190476191" stroke="#333" stroke-width="1.5" />
<line x1="491.5555555555555" y1="79.0476190476191" x2="501.5555555555555" y2="79.0476190476191" stroke="#333" stroke-width="1.5" />
<rect x="525.1111111111111" y="99.38888670071469" width="41.11111111111111" height="360.6111132992853" fill="#66a182" />
<line x1="545.6666666666666" y1="99.38888670071469" x2="545.6666666666666" y2="99.38888670071469" stroke="#333" stroke-width="1.5" />
<line x1="540.6666666666666" y1="99.38888670071469" x2="550.6666666666666" y2="99.38888670071469" stroke="#333" stroke-width="1.5" />
<line x1="540.6666666666666" y1="99.38888670071469" x2="550.6666666666666" y2="99.38888670071469" stroke="#333" stroke-width="1.5" />
<text x="706.6666666666666" y="485" text-anchor="middle" class="label">IDK</text>
<rect x="624.4444444444443" y="248.01843317972353" width="41.11111111111111" height="211.98156682027647" fill="#d1495b" />
<line x1="644.9999999999999" y1="248.01843317972353" x2="644.9999999999999" y2="248.01843317972353" stroke="#333" stroke-width="1.5" />
<line x1="639.9999999999999" y1="248.01843317972353" x2="649.9999999999999" y2="248.01843317972353" stroke="#333" stroke-width="1.5" />
<line x1="639.9999999999999" y1="248.01843317972353" x2="649.9999999999999" y2="248.01843317972353" stroke="#333" stroke-width="1.5" />
<rect x="673.5555555555554" y="237.7777777777778" width="41.11111111111111" height="222.2222222222222" fill="#edae49" />
<line x1="694.111111111111" y1="237.7777777777778" x2="694.111111111111" y2="237.7777777777778" stroke="#333" stroke-width="1.5" />
<line x1="689.111111111111" y1="237.7777777777778" x2="699.111111111111" y2="237.7777777777778" stroke="#333" stroke-width="1.5" />
<line x1="689.111111111111" y1="237.7777777777778" x2="699.111111111111" y2="237.7777777777778" stroke="#333" stroke-width="1.5" />
<rect x="722.6666666666665" y="83.14388120839737" width="41.11111111111111" height="376.8561187916026" fill="#00798c" />
<line x1="743.2222222222221" y1="83.14388120839737" x2="743.2222222222221" y2="83.14388120839737" stroke="#333" stroke-width="1.5" />
<line x1="738.2222222222221" y1="83.14388120839737" x2="748.2222222222221" y2="83.14388120839737" stroke="#333" stroke-width="1.5" />
<line x1="738.2222222222221" y1="83.14388120839737" x2="748.2222222222221" y2="83.14388120839737" stroke="#333" stroke-width="1.5" />
<rect x="771.7777777777776" y="109.89212301040266" width="41.11111111111111" height="350.10787698959734" fill="#66a182" />
<line x1="792.3333333333331" y1="109.89212301040266" x2="792.3333333333331" y2="109.89212301040266" stroke="#333" stroke-width="1.5" />
<line x1="787.3333333333331" y1="109.89212301040266" x2="797.3333333333331" y2="109.89212301040266" stroke="#333" stroke-width="1.5" />
<line x1="787.3333333333331" y1="109.89212301040266" x2="797.3333333333331" y2="109.89212301040266" stroke="#333" stroke-width="1.5" />
<rect x="680" y="60" width="14" height="14" fill="#d1495b" />
<text x="702" y="71" class="small">Forget</text>
<rect x="680" y="84" width="14" height="14" fill="#edae49" />
<text x="702" y="95" class="small">Retain</text>
<rect x="680" y="108" width="14" height="14" fill="#00798c" />
<text x="702" y="119" class="small">Real Author</text>
<rect x="680" y="132" width="14" height="14" fill="#66a182" />
<text x="702" y="143" class="small">World Fact</text>
</svg>
