<svg xmlns="http://www.w3.org/2000/svg" width="860" height="540" viewBox="0 0 860 540">
<style>
text { font-family: Arial, sans-serif; fill: #222; }
.small { font-size: 12px; }
.label { font-size: 13px; font-weight: bold; }
.title { font-size: 18px; font-weight: bold; }
.axis { stroke: #444; stroke-width: 1.2; }
.grid { stroke: #ddd; stroke-width: 1; }
</style>
<text x="430.0" y="30" text-anchor="middle" class="title">Accuracy by Evaluation Split</text>
<line x1="90" y1="460.0" x2="830" y2="460.0" class="grid" />
<text x="80" y="464.0" text-anchor="end" class="small">0.0</text>
<line x1="90" y1="380.0" x2="830" y2="380.0" class="grid" />
<text x="80" y="384.0" text-anchor="end" class="small">0.2</text>
<line x1="90" y1="300.0" x2="830" y2="300.0" class="grid" />
<text x="80" y="304.0" text-anchor="end" class="small">0.4</text>
<line x1="90" y1="220.0" x2="830" y2="220.0" class="grid" />
<text x="80" y="224.0" text-anchor="end" class="small">0.6</text>
<line x1="90" y1="140.0" x2="830" y2="140.0" class="grid" />
<text x="80" y="144.0" text-anchor="end" class="small">0.8</text>
<line x1="90" y1="60.0" x2="830" y2="60.0" class="grid" />
<text x="80" y="64.0" text-anchor="end" class="small">1.0</text>
<line x1="90" y1="460" x2="830" y2="460" class="axis" />
<line x1="90" y1="60" x2="90" y2="460" class="axis" />
<text x="22" y="270.0" text-anchor="middle" transform="rotate(-90 22 270.0)" class="label">Accuracy</text>
<text x="213.33333333333331" y="485" text-anchor="middle" class="label">GAFT</text>
<rect x="131.11111111111111" y="222.0" width="41.11111111111111" height="238.0" fill="#d1495b" />
<rect x="180.22222222222223" y="235.0" width="41.11111111111111" height="225.0" fill="#edae49" />
<rect x="229.33333333333331" y="88.0" width="41.11111111111111" height="372.0" fill="#00798c" />
<rect x="278.44444444444446" y="107.86324786324786" width="41.11111111111111" height="352.13675213675214" fill="#66a182" />
<text x="459.99999999999994" y="485" text-anchor="middle" class="label">IDK</text>
<rect x="377.7777777777777" y="253.00000000000003" width="41.11111111111111" height="206.99999999999997" fill="#d1495b" />
<rect x="426.8888888888888" y="243.0" width="41.11111111111111" height="217.0" fill="#edae49" />
<rect x="475.99999999999994" y="92.0" width="41.11111111111111" height="368.0" fill="#00798c" />
<rect x="525.1111111111111" y="118.11965811965814" width="41.11111111111111" height="341.88034188034186" fill="#66a182" />
<text x="706.6666666666666" y="485" text-anchor="middle" class="label">PGA</text>
<rect x="624.4444444444443" y="224.0" width="41.11111111111111" height="236.0" fill="#d1495b" />
<rect x="673.5555555555554" y="233.0" width="41.11111111111111" height="227.0" fill="#edae49" />
<rect x="722.6666666666665" y="96.0" width="41.11111111111111" height="364.0" fill="#00798c" />
<rect x="771.7777777777776" y="111.28205128205127" width="41.11111111111111" height="348.71794871794873" fill="#66a182" />
<rect x="680" y="60" width="14" height="14" fill="#d1495b" />
<text x="702" y="71" class="small">Forget</text>
<rect x="680" y="84" width="14" height="14" fill="#edae49" />
<text x="702" y="95" class="small">Retain</text>
<rect x="680" y="108" width="14" height="14" fill="#00798c" />
<text x="702" y="119" class="small">Real Author</text>
<rect x="680" y="132" width="14" height="14" fill="#66a182" />
<text x="702" y="143" class="small">World Fact</text>
</svg>
