<svg xmlns="http://www.w3.org/2000/svg" width="860" height="540" viewBox="0 0 860 540">
<style>
text { font-family: Arial, sans-serif; fill: #222; }
.small { font-size: 12px; }
.label { font-size: 13px; font-weight: bold; }
.title { font-size: 18px; font-weight: bold; }
.axis { stroke: #444; stroke-width: 1.2; }
.grid { stroke: #ddd; stroke-width: 1; }
</style>
<text x="430.0" y="30" text-anchor="middle" class="title">Accuracy by Evaluation Split</text>
<line x1="90" y1="460.0" x2="830" y2="460.0" class="grid" />
<text x="80" y="464.0" text-anchor="end" class="small">0.0</text>
<line x1="90" y1="380.0" x2="830" y2="380.0" class="grid" />
<text x="80" y="384.0" text-anchor="end" class="small">0.2</text>
<line x1="90" y1="300.0" x2="830" y2="300.0" class="grid" />
<text x="80" y="304.0" text-anchor="end" class="small">0.4</text>
<line x1="90" y1="220.0" x2="830" y2="220.0" class="grid" />
<text x="80" y="224.0" text-anchor="end" class="small">0.5</text>
<line x1="90" y1="140.0" x2="830" y2="140.0" class="grid" />
<text x="80" y="144.0" text-anchor="end" class="small">0.7</text>
<line x1="90" y1="60.00000000000006" x2="830" y2="60.00000000000006" class="grid" />
<text x="80" y="64.00000000000006" text-anchor="end" class="small">0.9</text>
<line x1="90" y1="460" x2="830" y2="460" class="axis" />
<line x1="90" y1="60" x2="90" y2="460" class="axis" />
<text x="22" y="270.0" text-anchor="middle" transform="rotate(-90 22 270.0)" class="label">Accuracy</text>
<text x="213.33333333333331" y="485" text-anchor="middle" class="label">PGA</text>
<rect x="131.11111111111111" y="195.7464792515692" width="41.11111111111111" height="264.2535207484308" fill="#d1495b" />
<line x1="151.66666666666666" y1="188.02169105361958" x2="151.66666666666666" y2="203.47126744951885" stroke="#333" stroke-width="1.5" />
<line x1="146.66666666666666" y1="188.02169105361958" x2="156.66666666666666" y2="188.02169105361958" stroke="#333" stroke-width="1.5" />
<line x1="146.66666666666666" y1="203.47126744951885" x2="156.66666666666666" y2="203.47126744951885" stroke="#333" stroke-width="1.5" />
<rect x="180.22222222222223" y="221.44692668705747" width="41.11111111111111" height="238.55307331294253" fill="#edae49" />
<line x1="200.77777777777777" y1="210.2521848218814" x2="200.77777777777777" y2="232.64166855223354" stroke="#333" stroke-width="1.5" />
<line x1="195.77777777777777" y1="210.2521848218814" x2="205.77777777777777" y2="210.2521848218814" stroke="#333" stroke-width="1.5" />
<line x1="195.77777777777777" y1="232.64166855223354" x2="205.77777777777777" y2="232.64166855223354" stroke="#333" stroke-width="1.5" />
<rect x="229.33333333333331" y="94.20250921383268" width="41.11111111111111" height="365.7974907861673" fill="#00798c" />
<line x1="249.88888888888886" y1="79.04761904761904" x2="249.88888888888886" y2="109.35739938004627" stroke="#333" stroke-width="1.5" />
<line x1="244.88888888888886" y1="79.04761904761904" x2="254.88888888888886" y2="79.04761904761904" stroke="#333" stroke-width="1.5" />
<line x1="244.88888888888886" y1="109.35739938004627" x2="254.88888888888886" y2="109.35739938004627" stroke="#333" stroke-width="1.5" />
<rect x="278.44444444444446" y="103.84187048763022" width="41.11111111111111" height="356.1581295123698" fill="#66a182" />
<line x1="299.0" y1="92.19872571998377" x2="299.0" y2="115.48501525527672" stroke="#333" stroke-width="1.5" />
<line x1="294.0" y1="92.19872571998377" x2="304.0" y2="92.19872571998377" stroke="#333" stroke-width="1.5" />
<line x1="294.0" y1="115.48501525527672" x2="304.0" y2="115.48501525527672" stroke="#333" stroke-width="1.5" />
<text x="459.99999999999994" y="485" text-anchor="middle" class="label">GAFT</text>
<rect x="377.7777777777777" y="217.1530257119864" width="41.11111111111111" height="242.8469742880136" fill="#d1495b" />
<line x1="398.33333333333326" y1="208.37921044855656" x2="398.33333333333326" y2="225.92684097541627" stroke="#333" stroke-width="1.5" />
<line x1="393.33333333333326" y1="208.37921044855656" x2="403.33333333333326" y2="208.37921044855656" stroke="#333" stroke-width="1.5" />
<line x1="393.33333333333326" y1="225.92684097541627" x2="403.33333333333326" y2="225.92684097541627" stroke="#333" stroke-width="1.5" />
<rect x="426.8888888888888" y="228.0278616028665" width="41.11111111111111" height="231.9721383971335" fill="#edae49" />
<line x1="447.44444444444434" y1="204.96108469156462" x2="447.44444444444434" y2="251.0946385141683" stroke="#333" stroke-width="1.5" />
<line x1="442.44444444444434" y1="204.96108469156462" x2="452.44444444444434" y2="204.96108469156462" stroke="#333" stroke-width="1.5" />
<line x1="442.44444444444434" y1="251.0946385141683" x2="452.44444444444434" y2="251.0946385141683" stroke="#333" stroke-width="1.5" />
<rect x="475.99999999999994" y="91.79436043048673" width="41.11111111111111" height="368.20563956951327" fill="#00798c" />
<line x1="496.5555555555555" y1="83.00025908505432" x2="496.5555555555555" y2="100.5884617759192" stroke="#333" stroke-width="1.5" />
<line x1="491.5555555555555" y1="83.00025908505432" x2="501.5555555555555" y2="83.00025908505432" stroke="#333" stroke-width="1.5" />
<line x1="491.5555555555555" y1="100.5884617759192" x2="501.5555555555555" y2="100.5884617759192" stroke="#333" stroke-width="1.5" />
<rect x="525.1111111111111" y="102.74963620700629" width="41.11111111111111" height="357.2503637929937" fill="#66a182" />
<line x1="545.6666666666666" y1="86.94971953264621" x2="545.6666666666666" y2="118.54955288136637" stroke="#333" stroke-width="1.5" />
<line x1="540.6666666666666" y1="86.94971953264621" x2="550.6666666666666" y2="86.94971953264621" stroke="#333" stroke-width="1.5" />
<line x1="540.6666666666666" y1="118.54955288136637" x2="550.6666666666666" y2="118.54955288136637" stroke="#333" stroke-width="1.5" />
<text x="706.6666666666666" y="485" text-anchor="middle" class="label">IDK</text>
<rect x="624.4444444444443" y="219.07165965293157" width="41.11111111111111" height="240.92834034706843" fill="#d1495b" />
<line x1="644.9999999999999" y1="212.61010825166198" x2="644.9999999999999" y2="225.5332110542011" stroke="#333" stroke-width="1.5" />
<line x1="639.9999999999999" y1="212.61010825166198" x2="649.9999999999999" y2="212.61010825166198" stroke="#333" stroke-width="1.5" />
<line x1="639.9999999999999" y1="225.5332110542011" x2="649.9999999999999" y2="225.5332110542011" stroke="#333" stroke-width="1.5" />
<rect x="673.5555555555554" y="230.1569757984228" width="41.11111111111111" height="229.8430242015772" fill="#edae49" />
<line x1="694.111111111111" y1="228.24441306251745" x2="694.111111111111" y2="232.06953853432813" stroke="#333" stroke-width="1.5" />
<line x1="689.111111111111" y1="228.24441306251745" x2="699.111111111111" y2="228.24441306251745" stroke="#333" stroke-width="1.5" />
<line x1="689.111111111111" y1="232.06953853432813" x2="699.111111111111" y2="232.06953853432813" stroke="#333" stroke-width="1.5" />
<rect x="722.6666666666665" y="95.1007082360149" width="41.11111111111111" height="364.8992917639851" fill="#00798c" />
<line x1="743.2222222222221" y1="82.4073867146746" x2="743.2222222222221" y2="107.79402975735525" stroke="#333" stroke-width="1.5" />
<line x1="738.2222222222221" y1="82.4073867146746" x2="748.2222222222221" y2="82.4073867146746" stroke="#333" stroke-width="1.5" />
<line x1="738.2222222222221" y1="107.79402975735525" x2="748.2222222222221" y2="107.79402975735525" stroke="#333" stroke-width="1.5" />
<rect x="771.7777777777776" y="104.94799793674866" width="41.11111111111111" height="355.05200206325134" fill="#66a182" />
<line x1="792.3333333333331" y1="92.63264081983596" x2="792.3333333333331" y2="117.26335505366131" stroke="#333" stroke-width="1.5" />
<line x1="787.3333333333331" y1="92.63264081983596" x2="797.3333333333331" y2="92.63264081983596" stroke="#333" stroke-width="1.5" />
<line x1="787.3333333333331" y1="117.26335505366131" x2="797.3333333333331" y2="117.26335505366131" stroke="#333" stroke-width="1.5" />
<rect x="680" y="60" width="14" height="14" fill="#d1495b" />
<text x="702" y="71" class="small">Forget</text>
<rect x="680" y="84" width="14" height="14" fill="#edae49" />
<text x="702" y="95" class="small">Retain</text>
<rect x="680" y="108" width="14" height="14" fill="#00798c" />
<text x="702" y="119" class="small">Real Author</text>
<rect x="680" y="132" width="14" height="14" fill="#66a182" />
<text x="702" y="143" class="small">World Fact</text>
</svg>
