<svg xmlns="http://www.w3.org/2000/svg" width="760" height="520" viewBox="0 0 760 520">
<style>
text { font-family: Arial, sans-serif; fill: #222; }
.small { font-size: 12px; }
.label { font-size: 13px; font-weight: bold; }
.title { font-size: 18px; font-weight: bold; }
.axis { stroke: #444; stroke-width: 1.2; }
.grid { stroke: #ddd; stroke-width: 1; }
</style>
<text x="380.0" y="30" text-anchor="middle" class="title">Privacy-Unlearning Trade-off</text>
<line x1="80" y1="450.0" x2="730" y2="450.0" class="grid" />
<text x="70" y="454.0" text-anchor="end" class="small">0.365</text>
<line x1="80" y1="352.5" x2="730" y2="352.5" class="grid" />
<text x="70" y="356.5" text-anchor="end" class="small">0.454</text>
<line x1="80" y1="254.99999999999994" x2="730" y2="254.99999999999994" class="grid" />
<text x="70" y="258.99999999999994" text-anchor="end" class="small">0.542</text>
<line x1="80" y1="157.50000000000006" x2="730" y2="157.50000000000006" class="grid" />
<text x="70" y="161.50000000000006" text-anchor="end" class="small">0.630</text>
<line x1="80" y1="60.0" x2="730" y2="60.0" class="grid" />
<text x="70" y="64.0" text-anchor="end" class="small">0.718</text>
<line x1="80.0" y1="60" x2="80.0" y2="450" class="grid" />
<text x="80.0" y="470" text-anchor="middle" class="small">0.004</text>
<line x1="242.5" y1="60" x2="242.5" y2="450" class="grid" />
<text x="242.5" y="470" text-anchor="middle" class="small">0.175</text>
<line x1="405.0" y1="60" x2="405.0" y2="450" class="grid" />
<text x="405.0" y="470" text-anchor="middle" class="small">0.346</text>
<line x1="567.5" y1="60" x2="567.5" y2="450" class="grid" />
<text x="567.5" y="470" text-anchor="middle" class="small">0.517</text>
<line x1="730.0" y1="60" x2="730.0" y2="450" class="grid" />
<text x="730.0" y="470" text-anchor="middle" class="small">0.688</text>
<line x1="80" y1="450" x2="730" y2="450" class="axis" />
<line x1="80" y1="60" x2="80" y2="450" class="axis" />
<text x="380.0" y="500" text-anchor="middle" class="label">Forget Quality (higher is better)</text>
<text x="20" y="260.0" text-anchor="middle" transform="rotate(-90 20 260.0)" class="label">Mean MIA score (lower is better)</text>
<line x1="109.60732802170855" y1="143.71321725056777" x2="120.65713961318225" y2="143.71321725056777" stroke="#d1495b" stroke-width="2" />
<line x1="115.1322338174454" y1="189.57750250101998" x2="115.1322338174454" y2="97.8489320001155" stroke="#d1495b" stroke-width="2" />
<circle cx="115.1322338174454" cy="143.71321725056777" r="8" fill="#d1495b" />
<text x="125.1322338174454" y="133.71321725056777" class="label">PGA (n=3)</text>
<line x1="519.1681241691447" y1="354.6440860979174" x2="698.8783280725438" y2="354.6440860979174" stroke="#2e86ab" stroke-width="2" />
<line x1="609.0232261208442" y1="379.85648625024714" x2="609.0232261208442" y2="329.4316859455877" stroke="#2e86ab" stroke-width="2" />
<circle cx="609.0232261208442" cy="354.6440860979174" r="8" fill="#2e86ab" />
<text x="619.0232261208442" y="344.6440860979174" class="label">GAFT (n=3)</text>
<line x1="80.62737243704309" y1="384.00319876204276" x2="272.03936705184765" y2="384.00319876204276" stroke="#2a9d8f" stroke-width="2" />
<line x1="176.33336974444535" y1="405.0191586663971" x2="176.33336974444535" y2="362.98723885768845" stroke="#2a9d8f" stroke-width="2" />
<circle cx="176.33336974444535" cy="384.00319876204276" r="8" fill="#2a9d8f" />
<text x="186.33336974444535" y="374.00319876204276" class="label">IDK (n=3)</text>
</svg>
