<svg xmlns="http://www.w3.org/2000/svg" width="860" height="540" viewBox="0 0 860 540">
<style>
text { font-family: Arial, sans-serif; fill: #222; }
.small { font-size: 12px; }
.label { font-size: 13px; font-weight: bold; }
.title { font-size: 18px; font-weight: bold; }
.axis { stroke: #444; stroke-width: 1.2; }
.grid { stroke: #ddd; stroke-width: 1; }
</style>
<text x="430.0" y="30" text-anchor="middle" class="title">Accuracy by Evaluation Split</text>
<line x1="90" y1="460.0" x2="830" y2="460.0" class="grid" />
<text x="80" y="464.0" text-anchor="end" class="small">0.0</text>
<line x1="90" y1="380.0" x2="830" y2="380.0" class="grid" />
<text x="80" y="384.0" text-anchor="end" class="small">0.2</text>
<line x1="90" y1="300.0" x2="830" y2="300.0" class="grid" />
<text x="80" y="304.0" text-anchor="end" class="small">0.4</text>
<line x1="90" y1="220.0" x2="830" y2="220.0" class="grid" />
<text x="80" y="224.0" text-anchor="end" class="small">0.6</text>
<line x1="90" y1="140.0" x2="830" y2="140.0" class="grid" />
<text x="80" y="144.0" text-anchor="end" class="small">0.8</text>
<line x1="90" y1="60.0" x2="830" y2="60.0" class="grid" />
<text x="80" y="64.0" text-anchor="end" class="small">1.0</text>
<line x1="90" y1="460" x2="830" y2="460" class="axis" />
<line x1="90" y1="60" x2="90" y2="460" class="axis" />
<text x="22" y="270.0" text-anchor="middle" transform="rotate(-90 22 270.0)" class="label">Accuracy</text>
<text x="213.33333333333331" y="485" text-anchor="middle" class="label">PGA</text>
<rect x="131.11111111111111" y="212.66666666666663" width="41.11111111111111" height="247.33333333333337" fill="#d1495b" />
<line x1="151.66666666666666" y1="208.8717773694963" x2="151.66666666666666" y2="216.461555963837" stroke="#333" stroke-width="1.5" />
<line x1="146.66666666666666" y1="208.8717773694963" x2="156.66666666666666" y2="208.8717773694963" stroke="#333" stroke-width="1.5" />
<line x1="146.66666666666666" y1="216.461555963837" x2="156.66666666666666" y2="216.461555963837" stroke="#333" stroke-width="1.5" />
<rect x="180.22222222222223" y="232.00000000000003" width="41.11111111111111" height="227.99999999999997" fill="#edae49" />
<line x1="200.77777777777777" y1="225.4270589282017" x2="200.77777777777777" y2="238.57294107179834" stroke="#333" stroke-width="1.5" />
<line x1="195.77777777777777" y1="225.4270589282017" x2="205.77777777777777" y2="225.4270589282017" stroke="#333" stroke-width="1.5" />
<line x1="195.77777777777777" y1="238.57294107179834" x2="205.77777777777777" y2="238.57294107179834" stroke="#333" stroke-width="1.5" />
<rect x="229.33333333333331" y="92.0" width="41.11111111111111" height="368.0" fill="#00798c" />
<line x1="249.88888888888886" y1="82.06264716670813" x2="249.88888888888886" y2="101.93735283329187" stroke="#333" stroke-width="1.5" />
<line x1="244.88888888888886" y1="82.06264716670813" x2="254.88888888888886" y2="82.06264716670813" stroke="#333" stroke-width="1.5" />
<line x1="244.88888888888886" y1="101.93735283329187" x2="254.88888888888886" y2="101.93735283329187" stroke="#333" stroke-width="1.5" />
<rect x="278.44444444444446" y="107.86324786324786" width="41.11111111111111" height="352.13675213675214" fill="#66a182" />
<line x1="299.0" y1="99.36978390316938" x2="299.0" y2="116.35671182332635" stroke="#333" stroke-width="1.5" />
<line x1="294.0" y1="99.36978390316938" x2="304.0" y2="99.36978390316938" stroke="#333" stroke-width="1.5" />
<line x1="294.0" y1="116.35671182332635" x2="304.0" y2="116.35671182332635" stroke="#333" stroke-width="1.5" />
<text x="459.99999999999994" y="485" text-anchor="middle" class="label">GAFT</text>
<rect x="377.7777777777777" y="232.00000000000003" width="41.11111111111111" height="227.99999999999997" fill="#d1495b" />
<line x1="398.33333333333326" y1="229.51566179167705" x2="398.33333333333326" y2="234.48433820832298" stroke="#333" stroke-width="1.5" />
<line x1="393.33333333333326" y1="229.51566179167705" x2="403.33333333333326" y2="229.51566179167705" stroke="#333" stroke-width="1.5" />
<line x1="393.33333333333326" y1="234.48433820832298" x2="403.33333333333326" y2="234.48433820832298" stroke="#333" stroke-width="1.5" />
<rect x="426.8888888888888" y="238.66666666666666" width="41.11111111111111" height="221.33333333333334" fill="#edae49" />
<line x1="447.44444444444434" y1="221.21724855475122" x2="447.44444444444434" y2="256.11608477858215" stroke="#333" stroke-width="1.5" />
<line x1="442.44444444444434" y1="221.21724855475122" x2="452.44444444444434" y2="221.21724855475122" stroke="#333" stroke-width="1.5" />
<line x1="442.44444444444434" y1="256.11608477858215" x2="452.44444444444434" y2="256.11608477858215" stroke="#333" stroke-width="1.5" />
<rect x="475.99999999999994" y="84.0" width="41.11111111111111" height="376.0" fill="#00798c" />
<line x1="496.5555555555555" y1="74.06264716670825" x2="496.5555555555555" y2="93.93735283329181" stroke="#333" stroke-width="1.5" />
<line x1="491.5555555555555" y1="74.06264716670825" x2="501.5555555555555" y2="74.06264716670825" stroke="#333" stroke-width="1.5" />
<line x1="491.5555555555555" y1="93.93735283329181" x2="501.5555555555555" y2="93.93735283329181" stroke="#333" stroke-width="1.5" />
<rect x="525.1111111111111" y="107.86324786324786" width="41.11111111111111" height="352.13675213675214" fill="#66a182" />
<line x1="545.6666666666666" y1="90.87631994309089" x2="545.6666666666666" y2="124.85017578340484" stroke="#333" stroke-width="1.5" />
<line x1="540.6666666666666" y1="90.87631994309089" x2="550.6666666666666" y2="90.87631994309089" stroke="#333" stroke-width="1.5" />
<line x1="540.6666666666666" y1="124.85017578340484" x2="550.6666666666666" y2="124.85017578340484" stroke="#333" stroke-width="1.5" />
<text x="706.6666666666666" y="485" text-anchor="middle" class="label">IDK</text>
<rect x="624.4444444444443" y="235.33333333333334" width="41.11111111111111" height="224.66666666666666" fill="#d1495b" />
<line x1="644.9999999999999" y1="229.08121928198153" x2="644.9999999999999" y2="241.58544738468515" stroke="#333" stroke-width="1.5" />
<line x1="639.9999999999999" y1="229.08121928198153" x2="649.9999999999999" y2="229.08121928198153" stroke="#333" stroke-width="1.5" />
<line x1="639.9999999999999" y1="241.58544738468515" x2="649.9999999999999" y2="241.58544738468515" stroke="#333" stroke-width="1.5" />
<rect x="673.5555555555554" y="241.99999999999997" width="41.11111111111111" height="218.00000000000003" fill="#edae49" />
<line x1="694.111111111111" y1="237.03132358335404" x2="694.111111111111" y2="246.9686764166459" stroke="#333" stroke-width="1.5" />
<line x1="689.111111111111" y1="237.03132358335404" x2="699.111111111111" y2="237.03132358335404" stroke="#333" stroke-width="1.5" />
<line x1="689.111111111111" y1="246.9686764166459" x2="699.111111111111" y2="246.9686764166459" stroke="#333" stroke-width="1.5" />
<rect x="722.6666666666665" y="92.0" width="41.11111111111111" height="368.0" fill="#00798c" />
<line x1="743.2222222222221" y1="82.06264716670813" x2="743.2222222222221" y2="101.93735283329187" stroke="#333" stroke-width="1.5" />
<line x1="738.2222222222221" y1="82.06264716670813" x2="748.2222222222221" y2="82.06264716670813" stroke="#333" stroke-width="1.5" />
<line x1="738.2222222222221" y1="101.93735283329187" x2="748.2222222222221" y2="101.93735283329187" stroke="#333" stroke-width="1.5" />
<rect x="771.7777777777776" y="110.14245014245017" width="41.11111111111111" height="349.8575498575498" fill="#66a182" />
<line x1="792.3333333333331" y1="92.46189499906376" x2="792.3333333333331" y2="127.82300528583653" stroke="#333" stroke-width="1.5" />
<line x1="787.3333333333331" y1="92.46189499906376" x2="797.3333333333331" y2="92.46189499906376" stroke="#333" stroke-width="1.5" />
<line x1="787.3333333333331" y1="127.82300528583653" x2="797.3333333333331" y2="127.82300528583653" stroke="#333" stroke-width="1.5" />
<rect x="680" y="60" width="14" height="14" fill="#d1495b" />
<text x="702" y="71" class="small">Forget</text>
<rect x="680" y="84" width="14" height="14" fill="#edae49" />
<text x="702" y="95" class="small">Retain</text>
<rect x="680" y="108" width="14" height="14" fill="#00798c" />
<text x="702" y="119" class="small">Real Author</text>
<rect x="680" y="132" width="14" height="14" fill="#66a182" />
<text x="702" y="143" class="small">World Fact</text>
</svg>
