<svg xmlns="http://www.w3.org/2000/svg" width="760" height="520" viewBox="0 0 760 520">
<style>
text { font-family: Arial, sans-serif; fill: #222; }
.small { font-size: 12px; }
.label { font-size: 13px; font-weight: bold; }
.title { font-size: 18px; font-weight: bold; }
.axis { stroke: #444; stroke-width: 1.2; }
.grid { stroke: #ddd; stroke-width: 1; }
</style>
<text x="380.0" y="30" text-anchor="middle" class="title">Privacy-Unlearning Trade-off</text>
<line x1="80" y1="450.0" x2="730" y2="450.0" class="grid" />
<text x="70" y="454.0" text-anchor="end" class="small">0.360</text>
<line x1="80" y1="352.5" x2="730" y2="352.5" class="grid" />
<text x="70" y="356.5" text-anchor="end" class="small">0.441</text>
<line x1="80" y1="254.99999999999991" x2="730" y2="254.99999999999991" class="grid" />
<text x="70" y="258.9999999999999" text-anchor="end" class="small">0.523</text>
<line x1="80" y1="157.49999999999994" x2="730" y2="157.49999999999994" class="grid" />
<text x="70" y="161.49999999999994" text-anchor="end" class="small">0.605</text>
<line x1="80" y1="60.0" x2="730" y2="60.0" class="grid" />
<text x="70" y="64.0" text-anchor="end" class="small">0.687</text>
<line x1="80.0" y1="60" x2="80.0" y2="450" class="grid" />
<text x="80.0" y="470" text-anchor="middle" class="small">-0.005</text>
<line x1="242.5" y1="60" x2="242.5" y2="450" class="grid" />
<text x="242.5" y="470" text-anchor="middle" class="small">0.161</text>
<line x1="405.0" y1="60" x2="405.0" y2="450" class="grid" />
<text x="405.0" y="470" text-anchor="middle" class="small">0.326</text>
<line x1="567.5" y1="60" x2="567.5" y2="450" class="grid" />
<text x="567.5" y="470" text-anchor="middle" class="small">0.491</text>
<line x1="730.0" y1="60" x2="730.0" y2="450" class="grid" />
<text x="730.0" y="470" text-anchor="middle" class="small">0.657</text>
<line x1="80" y1="450" x2="730" y2="450" class="axis" />
<line x1="80" y1="60" x2="80" y2="450" class="axis" />
<text x="380.0" y="500" text-anchor="middle" class="label">Forget Quality (higher is better)</text>
<text x="20" y="260.0" text-anchor="middle" transform="rotate(-90 20 260.0)" class="label">Mean MIA score (lower is better)</text>
<line x1="112.04673215119396" y1="137.49978318441742" x2="134.59650658939833" y2="137.49978318441742" stroke="#d1495b" stroke-width="2" />
<line x1="123.32161937029615" y1="176.01768961583718" x2="123.32161937029615" y2="98.98187675299772" stroke="#d1495b" stroke-width="2" />
<circle cx="123.32161937029615" cy="137.49978318441742" r="8" fill="#d1495b" />
<text x="133.32161937029616" y="127.49978318441742" class="label">PGA (n=3)</text>
<line x1="536.3957471149222" y1="352.158278038649" x2="699.2752363126447" y2="352.158278038649" stroke="#2e86ab" stroke-width="2" />
<line x1="617.8354917137834" y1="378.00672321648904" x2="617.8354917137834" y2="326.3098328608089" stroke="#2e86ab" stroke-width="2" />
<circle cx="617.8354917137834" cy="352.158278038649" r="8" fill="#2e86ab" />
<text x="627.8354917137834" y="342.158278038649" class="label">GAFT (n=3)</text>
<line x1="79.15647719431678" y1="381.6089449874378" x2="294.197091497011" y2="381.6089449874378" stroke="#2a9d8f" stroke-width="2" />
<line x1="186.67678434566386" y1="402.375620909672" x2="186.67678434566386" y2="360.84226906520354" stroke="#2a9d8f" stroke-width="2" />
<circle cx="186.67678434566386" cy="381.6089449874378" r="8" fill="#2a9d8f" />
<text x="196.67678434566386" y="371.6089449874378" class="label">IDK (n=3)</text>
</svg>
